<?xml version="1.0" standalone="no"?>
<!DOCTYPE svg PUBLIC "-//W3C//DTD SVG 20010904//EN"
 "http://www.w3.org/TR/2001/REC-SVG-20010904/DTD/svg10.dtd">
<svg version="1.0" xmlns="http://www.w3.org/2000/svg"
 width="171.000000pt" height="50.000000pt" viewBox="0 0 171.000000 50.000000"
 preserveAspectRatio="xMidYMid meet">
<metadata>
Created by potrace 1.16, written by Peter Selinger 2001-2019
</metadata>
<g transform="translate(0.000000,50.000000) scale(0.012964,-0.011111)"
fill="#000000" stroke="none">
<path d="M165 4476 c-60 -28 -103 -70 -136 -134 l-24 -47 0 -1260 0 -1260 23
-46 c27 -55 81 -111 131 -136 34 -17 85 -18 896 -18 l860 0 109 28 c103 27
252 86 314 123 121 75 190 130 279 223 144 151 249 360 299 591 21 99 32 732
14 881 -29 255 -121 475 -274 654 -52 61 -63 72 -132 136 -95 87 -261 179
-412 228 -180 60 -197 61 -1086 61 l-811 0 -50 -24z m1786 -558 c222 -78 353
-220 416 -448 16 -57 18 -110 18 -435 0 -417 -1 -426 -71 -572 -95 -199 -274
-317 -518 -343 -50 -5 -351 -10 -668 -10 l-578 0 0 920 0 921 663 -3 662 -3
76 -27z"/>
<path d="M4630 4489 c-341 -52 -604 -182 -830 -408 -192 -193 -306 -397 -375
-671 -40 -155 -44 -266 -45 -1067 l0 -773 275 0 275 0 0 355 0 355 920 0 920
0 0 -355 0 -355 275 0 275 0 -2 1368 -3 1367 -27 45 c-36 63 -74 99 -133 126
l-50 24 -710 -1 c-390 -1 -735 -5 -765 -10z m1140 -1099 l0 -560 -921 0 -922
0 6 193 c8 263 34 367 135 535 77 128 184 220 342 294 93 43 128 55 238 78 78
17 143 19 605 19 l517 1 0 -560z"/>
<path d="M7465 3035 c0 -803 1 -1133 2 -733 2 399 2 1056 0 1460 -1 403 -2 76
-2 -727z"/>
<path d="M8580 930 l0 -70 75 0 75 0 0 70 0 70 -75 0 -75 0 0 -70z"/>
<path d="M11050 930 l0 -70 70 0 70 0 0 70 0 70 -70 0 -70 0 0 -70z"/>
<path d="M6150 672 c0 -203 -3 -281 -12 -290 -9 -9 -79 -12 -255 -12 l-243 0
0 -70 0 -70 262 0 261 0 43 25 c26 15 54 43 69 69 l25 43 0 291 0 292 -75 0
-75 0 0 -278z"/>
<path d="M7830 860 l0 -90 -85 0 -85 0 0 -70 0 -70 85 0 85 0 0 -200 0 -200
75 0 75 0 0 200 0 200 110 0 110 0 0 70 0 70 -110 0 -110 0 0 90 0 90 -75 0
-75 0 0 -90z"/>
<path d="M6402 588 c3 -166 5 -187 25 -224 28 -52 95 -111 142 -124 20 -5 118
-10 218 -10 l182 0 20 26 c20 25 21 39 21 270 l0 244 -75 0 -75 0 0 -200 0
-200 -110 0 c-126 0 -174 14 -190 55 -6 15 -10 98 -10 186 l0 159 -76 0 -76 0
4 -182z"/>
<path d="M7185 760 c-11 -4 -35 -24 -54 -43 -54 -57 -53 -158 3 -212 42 -41
59 -45 191 -45 138 -1 165 -8 165 -48 0 -36 -30 -42 -214 -42 l-176 0 0 -70 0
-70 195 0 c215 0 238 5 291 58 65 65 65 188 1 253 -51 51 -83 59 -222 59 -104
0 -125 2 -125 15 0 13 25 15 165 15 l165 0 0 70 0 70 -182 -1 c-101 0 -192 -4
-203 -9z"/>
<path d="M8580 500 l0 -270 75 0 75 0 0 270 0 270 -75 0 -75 0 0 -270z"/>
<path d="M8850 748 c-19 -21 -20 -34 -20 -270 l0 -248 75 0 75 0 0 200 0 200
83 0 c51 0 88 -5 95 -12 8 -8 12 -67 12 -200 l0 -188 75 0 75 0 0 200 0 200
58 0 c32 0 63 -5 70 -12 8 -8 12 -67 12 -200 l0 -188 75 0 75 0 0 173 c-1 195
-7 242 -41 291 -42 62 -81 76 -213 76 -97 0 -116 -2 -116 -15 0 -14 -3 -14
-30 0 -22 11 -65 15 -184 15 -147 0 -156 -1 -176 -22z"/>
<path d="M9790 700 l0 -70 160 0 c189 0 180 6 180 -130 0 -135 6 -130 -158
-130 -146 0 -162 5 -162 47 0 35 29 43 159 43 l121 0 0 71 0 71 -147 -4 c-143
-3 -149 -5 -190 -32 -121 -81 -103 -275 30 -325 34 -13 336 -15 369 -2 13 5
40 25 60 45 48 48 61 108 57 253 -4 100 -7 114 -32 151 -47 72 -80 82 -277 82
l-170 0 0 -70z"/>
<path d="M10446 753 c-71 -38 -96 -86 -103 -202 -11 -172 18 -258 102 -300 37
-18 60 -21 184 -21 l141 0 0 70 0 70 -121 0 c-66 0 -129 5 -140 10 -17 10 -19
22 -19 116 0 78 4 109 14 120 19 18 266 20 284 2 9 -9 12 -75 12 -235 0 -210
-1 -223 -19 -233 -11 -5 -74 -10 -140 -10 l-121 0 0 -70 0 -70 140 0 c145 0
169 5 227 48 57 42 63 75 63 340 0 235 0 239 -25 289 -14 28 -33 54 -43 57 -9
4 -28 13 -42 21 -37 22 -353 21 -394 -2z"/>
<path d="M11050 500 l0 -270 70 0 70 0 0 270 0 270 -70 0 -70 0 0 -270z"/>
<path d="M11330 763 c-8 -3 -18 -11 -22 -17 -4 -6 -8 -125 -8 -263 l0 -253 70
0 70 0 0 201 0 201 129 -4 c121 -3 131 -5 155 -27 l26 -24 0 -174 0 -173 75 0
75 0 -1 178 c0 113 -5 188 -13 207 -26 65 -52 95 -110 125 l-59 30 -186 -1
c-102 0 -193 -3 -201 -6z"/>
<path d="M12070 749 c-19 -11 -46 -39 -60 -62 -22 -38 -25 -55 -28 -174 -4
-121 -2 -137 18 -179 16 -31 37 -55 68 -75 45 -29 48 -29 194 -29 l148 0 0 70
0 70 -133 0 c-90 0 -137 4 -145 12 -16 16 -16 220 0 236 14 14 275 17 296 3 8
-5 12 -21 10 -37 l-3 -29 -137 -3 -138 -3 0 -72 0 -72 146 2 c129 2 150 5 182
24 117 68 122 239 10 312 -42 27 -43 27 -218 27 -158 0 -178 -2 -210 -21z"/>
</g>
</svg>
